<svg width="112" height="130" viewBox="0 0 112 130" fill="none" xmlns="http://www.w3.org/2000/svg">
<g id="Business Woman">
<path id="Vector" d="M31.3789 100.095C31.5607 100.085 36.236 99.8372 36.418 99.8372C36.8042 99.8381 37.1841 99.935 37.5237 100.119C37.8632 100.303 38.1517 100.569 38.3633 100.892L47.8555 115.236L39.8164 85.9856L31.3789 100.095Z" fill="#FBEBEB"/>
<path id="Vector_2" d="M49.4727 103.447L56.0352 127.33L62.5977 103.447H49.4727Z" fill="#FBEBEB"/>
<path id="Vector_3" d="M64.918 74.595C62.61 76.9669 59.5022 78.3955 56.1992 78.6028C52.6173 78.2906 49.2506 76.7602 46.6602 74.2668C46.6133 74.2434 46.5898 74.1965 46.543 74.1497C45.7583 76.8257 44.763 79.4354 43.5664 81.9543L48.1836 98.759H63.8867L67.7108 81.9504C66.5364 79.5981 65.6007 77.1339 64.918 74.595Z" fill="#FBEBEB"/>
<path id="Vector_4" d="M73.707 100.892C73.9354 100.558 74.2438 100.286 74.6041 100.102C74.9644 99.9179 75.365 99.8268 75.7695 99.8372L80.6914 100.095L72.2539 85.9856L64.2148 115.236L73.707 100.892Z" fill="#FBEBEB"/>
<path id="Vector_5" d="M86.9727 101.454L74.8789 81.228C76.9122 81.3702 78.9491 81.0079 80.8086 80.1733C90.1602 82.8687 101.762 87.0171 105.582 91.7046C110.807 98.1631 111.569 118.998 111.707 128.32C111.71 128.475 111.681 128.63 111.624 128.774C111.566 128.918 111.48 129.049 111.371 129.16C111.262 129.271 111.132 129.359 110.988 129.419C110.845 129.479 110.691 129.509 110.535 129.509H60.418L76.8711 104.595L84.8398 104.994C85.2643 105.018 85.6872 104.925 86.0631 104.727C86.439 104.528 86.7536 104.231 86.973 103.867C87.1925 103.503 87.3084 103.086 87.3083 102.661C87.3082 102.236 87.1922 101.818 86.9727 101.454Z" fill="#FBEBEB"/>
<path id="Vector_6" d="M40.1913 77.9701C41.1758 75.4733 41.9901 72.9128 42.6288 70.306C38.8319 65.7175 36.302 60.2152 35.2905 54.346C35.2447 54.1033 35.1176 53.8835 34.9302 53.7226C33.246 52.1975 31.9324 50.308 31.0895 48.1981C30.2466 46.0883 29.8966 43.8138 30.0663 41.5481C30.0887 41.044 30.2746 40.5609 30.596 40.1718C30.9174 39.7828 31.3567 39.509 31.8475 39.3918C35.3327 38.4565 38.4931 36.5795 40.9819 33.9666C43.4708 31.3537 45.192 28.1059 45.9569 24.5793C46.0535 24.1142 46.2766 23.6848 46.6017 23.3383C46.9268 22.9919 47.3411 22.7419 47.7992 22.6159C48.2572 22.4898 48.7412 22.4927 49.1977 22.6241C49.6542 22.7555 50.0656 23.0103 50.3866 23.3606C56.105 29.7691 64.05 33.7583 72.6053 34.5168C75.5724 34.6266 78.4582 35.5158 80.9725 37.095C85.0542 40.5215 82.0342 49.7834 77.8493 53.5629C77.6869 53.7039 77.5729 53.8925 77.5235 54.1019C75.942 60.2543 72.9773 65.9647 68.8553 70.7982L68.785 70.8685C69.7111 75.1021 74.6573 79.1193 81.7694 74.3138C87.9601 70.26 92.7228 64.366 95.3866 57.4622C97.683 51.4567 95.8399 46.8398 93.3475 40.1419C90.052 31.5447 86.469 15.8942 78.6991 8.97006C73.871 4.681 70.4959 3.04037 65.9959 2.82943C61.7782 0.700881 56.99 -0.0218757 52.3319 0.766934C29.2027 3.58609 17.5741 38.8294 15.9569 51.3685C14.5209 62.3481 17.9902 66.6225 22.1444 69.3919C28.0679 73.3409 27.9432 76.5998 32.5741 77.8997C34.4107 78.2929 36.3144 78.2447 38.1288 77.7591C38.8232 77.7141 39.5203 77.7853 40.1913 77.9701Z" fill="#FBEBEB"/>
<path id="Vector_7" d="M51.6521 129.509H1.49835C1.34013 129.509 1.18349 129.478 1.0379 129.416C0.892314 129.354 0.760808 129.263 0.651339 129.149C0.54187 129.034 0.456714 128.899 0.401024 128.751C0.345334 128.603 0.320268 128.445 0.327341 128.287C0.734099 119.009 2.20363 98.487 7.33175 92.1497C10.5896 88.1418 20.5271 84.0872 28.5663 81.2981C30.922 82.599 33.6334 83.1084 36.3006 82.7512L25.0975 101.454C24.878 101.818 24.762 102.235 24.762 102.66C24.7619 103.086 24.8778 103.503 25.0972 103.867C25.3167 104.231 25.6313 104.528 26.0071 104.727C26.383 104.925 26.8059 105.017 27.2303 104.993L35.1991 104.595L51.6521 129.509Z" fill="#FBEBEB"/>
<path id="Vector_8" d="M74.2227 50.4778C77.7023 47.7309 78.8773 41.4676 77.9727 40.6809C76.0734 39.7901 74.0204 39.2729 71.9258 39.1575C63.5335 38.3971 55.6374 34.8493 49.4961 29.0793C48.2379 32.3967 46.2681 35.398 43.7252 37.8721C41.1822 40.3462 38.128 42.233 34.7773 43.3997C34.8505 44.8291 35.2369 46.2251 35.9092 47.4887C36.5816 48.7523 37.5233 49.8527 38.668 50.7122C38.9369 50.8938 39.1653 51.1292 39.3388 51.4035C39.5123 51.6778 39.627 51.9851 39.6758 52.3059C40.541 59.4848 44.1221 66.0599 49.6836 70.6809C55.6602 75.673 58.1446 74.4309 63.2305 69.837C68.1667 65.0324 71.6094 58.9038 73.1445 52.1886C73.1865 51.8414 73.305 51.5079 73.4914 51.2121C73.6779 50.9163 73.9276 50.6655 74.2227 50.4778Z" fill="#FBEBEB"/>
</g>
</svg>
