<svg width="150" height="133" viewBox="0 0 150 133" fill="none" xmlns="http://www.w3.org/2000/svg">
<g id="fi_2838764" clip-path="url(#clip0_1595_2658)">
<g id="Group">
<path id="Vector" d="M4.388 105.927H119.237C120.267 105.927 121.263 105.567 122.052 104.91C123.155 103.986 148.319 82.3392 149.853 35.6116H26.5075C24.9791 78.0277 1.80478 97.9646 1.56395 98.1635C0.15207 99.3565 -0.367387 101.305 0.267798 103.039C0.898588 104.768 2.54251 105.927 4.388 105.927Z" fill="#FBEBEB"/>
<path id="Vector_2" d="M145.605 9.24331H123.631V4.84858C123.631 2.38754 121.698 0.453857 119.237 0.453857C116.776 0.453857 114.842 2.38754 114.842 4.84858V9.24331H92.5752V4.84858C92.5752 2.38754 90.6415 0.453857 88.1805 0.453857C85.7194 0.453857 83.7858 2.38754 83.7858 4.84858V9.24331H61.8121V4.84858C61.8121 2.38754 59.8784 0.453857 57.4174 0.453857C54.9563 0.453857 53.0227 2.38754 53.0227 4.84858V9.24331H31.049C28.588 9.24331 26.6543 11.177 26.6543 13.638V26.8222H150V13.638C150 11.177 148.066 9.24331 145.605 9.24331Z" fill="#FBEBEB"/>
<path id="Vector_3" d="M127.696 111.648C125.309 113.635 122.314 114.717 119.237 114.717H26.6543V127.901C26.6543 130.33 28.6199 132.296 31.049 132.296H145.605C148.034 132.296 150 130.33 150 127.901V78.6375C141.527 99.4248 129.703 109.968 127.696 111.648Z" fill="#FBEBEB"/>
</g>
</g>
<defs>
<clipPath id="clip0_1595_2658">
<rect width="150" height="132.75" fill="white"/>
</clipPath>
</defs>
</svg>
