<svg width="112" height="137" viewBox="0 0 112 137" fill="none" xmlns="http://www.w3.org/2000/svg">
<g id="Group">
<g id="Group_2">
<path id="Vector" d="M29.4909 42.9244C29.9661 45.1103 30.6947 46.5253 31.5447 47.407C33.5669 61.4831 46.2016 73.4789 56.3494 72.9773C69.2586 72.3437 78.4086 58.4313 80.4625 47.407C81.3125 46.5306 82.1309 44.6562 82.6219 42.4545C83.171 39.9255 83.7624 36.1134 82.2418 34.0965C82.152 33.9909 81.5712 33.4577 81.4709 33.3679C82.9229 28.1303 86.1119 18.785 78.171 10.3848C73.8679 5.83355 67.8912 3.54738 62.4899 1.74167C46.5448 -3.58569 35.2881 3.88529 30.0928 16.3088C29.7179 17.1905 27.2945 22.7713 30.23 33.3679C29.9449 33.558 29.6862 33.8009 29.4697 34.0965C27.9439 36.1082 28.9365 40.3954 29.4909 42.9244Z" fill="#DCEEFF"/>
<path id="Vector_2" d="M111.959 120.338C111.515 110.649 110.966 95.2953 102.503 82.7346C102.503 82.7346 100.09 79.4452 94.3665 77.2594C94.3665 77.2594 81.9378 73.4737 76.2144 69.3818L73.6009 71.1717L73.8913 88.1622L58.1996 130.052C57.8564 130.971 56.98 131.578 56.0032 131.578C55.0264 131.578 54.15 130.971 53.8068 130.052L38.1204 88.1622C38.1204 88.1622 38.4108 71.2245 38.4055 71.1717C38.4424 71.3143 35.7867 69.3818 35.7867 69.3818C30.0739 73.4737 17.6399 77.2594 17.6399 77.2594C11.9165 79.4452 9.50362 82.7346 9.50362 82.7346C1.04531 95.2953 0.485646 110.649 0.0421389 120.338C-0.264092 127.032 1.14035 129.53 2.90381 130.243C24.794 139.028 87.1965 139.028 109.092 130.243C110.866 129.535 112.26 127.032 111.959 120.338Z" fill="#DCEEFF"/>
<path id="Vector_3" d="M56.5619 78.3895L55.8544 78.4053C53.5735 78.4053 51.2715 77.9618 49.0117 77.1804L55.2314 86.7L49.6506 92.0854L55.395 126.969C55.4426 127.27 55.7013 127.487 56.0075 127.487C56.3085 127.487 56.5672 127.27 56.62 126.969L62.3644 92.0854L56.7784 86.7L62.9083 77.323C60.9072 77.909 58.79 78.2997 56.5619 78.3895Z" fill="#DCEEFF"/>
</g>
</g>
</svg>
