<svg width="150" height="150" viewBox="0 0 150 150" fill="none" xmlns="http://www.w3.org/2000/svg">
<g id="fi_33308">
<g id="Group">
<path id="Vector" d="M90.5185 33.5493C97.4541 37.8979 102.317 45.2566 103.203 53.7983C106.031 55.1199 109.171 55.8799 112.499 55.8799C124.65 55.8799 134.498 46.0316 134.498 33.8826C134.498 21.7317 124.65 11.8833 112.499 11.8833C100.464 11.887 90.702 21.5595 90.5185 33.5493ZM76.1063 78.5924C88.2572 78.5924 98.1056 68.7422 98.1056 56.5932C98.1056 44.4441 88.2553 34.5958 76.1063 34.5958C63.9573 34.5958 54.1033 44.446 54.1033 56.595C54.1033 68.744 63.9573 78.5924 76.1063 78.5924ZM85.438 80.0918H66.7709C51.2392 80.0918 38.6035 92.7294 38.6035 108.261V131.09L38.6616 131.447L40.234 131.939C55.0562 136.571 67.9334 138.115 78.5324 138.115C99.2344 138.115 111.234 132.213 111.973 131.837L113.443 131.093H113.6V108.261C113.605 92.7294 100.97 80.0918 85.438 80.0918ZM121.835 57.3812H103.311C103.111 64.7923 99.9476 71.4659 94.9438 76.2656C108.75 80.3708 118.851 93.1731 118.851 108.295V115.33C137.14 114.659 147.679 109.476 148.373 109.128L149.843 108.383H150V85.5467C150 70.017 137.364 57.3812 121.835 57.3812ZM37.5047 55.8837C41.8083 55.8837 45.8124 54.6276 49.2044 52.4879C50.2827 45.455 54.0528 39.3094 59.4384 35.1237C59.4609 34.7118 59.5002 34.3037 59.5002 33.8882C59.5002 21.7373 49.6499 11.8889 37.5047 11.8889C25.3519 11.8889 15.5054 21.7373 15.5054 33.8882C15.5054 46.0334 25.3519 55.8837 37.5047 55.8837ZM57.2613 76.2656C52.2819 71.4902 49.1295 64.8522 48.8993 57.4861C48.2123 57.4355 47.5328 57.3812 46.8326 57.3812H28.1674C12.6357 57.3812 0 70.017 0 85.5467V108.379L0.0580307 108.731L1.63048 109.227C13.5212 112.939 24.1333 114.65 33.3508 115.189V108.295C33.3545 93.1731 43.4519 80.3745 57.2613 76.2656Z" fill="#FBEBEB"/>
</g>
</g>
</svg>
